<svg xmlns="http://www.w3.org/2000/svg" width="12" height="32" viewBox="0 0 12 32">
  <defs>
    <linearGradient id="thread"><stop stop-color="#65491f"/><stop offset=".24" stop-color="#baa16d"/><stop offset=".5" stop-color="#eee0ae"/><stop offset=".7" stop-color="#bba06b"/><stop offset="1" stop-color="#6d5228"/></linearGradient>
  </defs>
  <path d="M4-4C11 0 11 4 4 8s-7 8 0 12 7 8 0 12-7 8 0 12" fill="none" stroke="#654b25" stroke-width="4.2"/>
  <path d="M8-4C1 0 1 4 8 8s7 8 0 12-7 8 0 12 7 8 0 12" fill="none" stroke="#806235" stroke-width="4.2"/>
  <path d="M4-4C11 0 11 4 4 8s-7 8 0 12 7 8 0 12-7 8 0 12" fill="none" stroke="url(#thread)" stroke-width="3.1"/>
  <path d="M8-4C1 0 1 4 8 8s7 8 0 12-7 8 0 12 7 8 0 12" fill="none" stroke="url(#thread)" stroke-width="3.1"/>
  <path d="M4-4C11 0 11 4 4 8s-7 8 0 12 7 8 0 12-7 8 0 12" fill="none" stroke="#f4e4b5" stroke-width=".5" opacity=".75"/>
</svg>
